<svg xmlns="http://www.w3.org/2000/svg" viewBox="0 0 32 32" role="img" aria-label="Prousta">
  <defs>
    <linearGradient id="bg" x1="4" y1="2" x2="28" y2="30" gradientUnits="userSpaceOnUse">
      <stop stop-color="#1a47c8"/>
      <stop offset="1" stop-color="#0f2d8f"/>
    </linearGradient>
    <linearGradient id="shine" x1="16" y1="2" x2="16" y2="18" gradientUnits="userSpaceOnUse">
      <stop stop-color="#fff" stop-opacity="0.22"/>
      <stop offset="1" stop-color="#fff" stop-opacity="0"/>
    </linearGradient>
  </defs>
  <rect x="1" y="1" width="30" height="30" rx="8" fill="url(#bg)"/>
  <rect x="1" y="1" width="30" height="30" rx="8" fill="url(#shine)"/>
  <path d="M11 8h6.4c3.5 0 5.9 2.2 5.9 5.5 0 2.6-1.4 4.4-3.5 5.1l4.5 5.4h-4l-3.9-4.8H14.3V24H11V8zm3.2 3v4.4h2.8c1.8 0 2.9-1 2.9-2.3 0-1.3-1.1-2.1-2.9-2.1H14.2z" fill="#fff"/>
  <circle cx="24.5" cy="24.5" r="3" fill="#f59e0b"/>
  <circle cx="24.5" cy="24.5" r="1.2" fill="#fff" fill-opacity="0.45"/>
</svg>